<?xml version="1.0" encoding="utf-8"?>
<!-- Generated by IcoMoon.io -->
<!DOCTYPE svg PUBLIC "-//W3C//DTD SVG 1.1//EN" "http://www.w3.org/Graphics/SVG/1.1/DTD/svg11.dtd">
<svg version="1.1" xmlns="http://www.w3.org/2000/svg" xmlns:xlink="http://www.w3.org/1999/xlink" width="32" height="32" viewBox="0 0 32 32">
<path fill="#000" d="M30 32h-28c-1.2 0-2-0.8-2-2v-28c0-1.2 0.8-2 2-2h28c1.2 0 2 0.8 2 2v28c0 1.2-0.8 2-2 2v0zM4 28h24v-24h-24v24z"></path>
<path fill="#000" d="M12 8c1.2 0 2 0.8 2 2s-0.8 2-2 2c-1.2 0-2-0.8-2-2s0.8-2 2-2z"></path>
<path fill="#000" d="M6 24l4-8 4 4 6-8 6 12h-20z"></path>
</svg>
